<svg xmlns="http://www.w3.org/2000/svg" viewBox="0 0 156 156"><defs><style>.cls-1{fill:#fff;stroke:#d4af37;stroke-miterlimit:10;}.cls-2{font-size:82px;}.cls-2,.cls-3{font-family:SnellRoundhand, Snell Roundhand;}.cls-3{font-size:64px;fill:#d4af37;}</style></defs><title>Asset 3</title><g id="Layer_2" data-name="Layer 2"><g id="Layer_1-2" data-name="Layer 1"><circle class="cls-1" cx="78" cy="78" r="77.5"/><text class="cls-2" transform="translate(0.13 77.26)">K</text><path d="M127,92.36a5.47,5.47,0,0,0-.08,1v1a6,6,0,0,0,.61,2.87,5.21,5.21,0,0,0,1.6,1.84,6.16,6.16,0,0,0,2.26,1,11.66,11.66,0,0,0,2.58.28,10.31,10.31,0,0,0,4.51-1.1,14.86,14.86,0,0,0,4.18-3,16,16,0,0,0,3.08-4.47,12.44,12.44,0,0,0,1.18-5.33c0-2.29-.62-3.84-1.88-4.63A9.49,9.49,0,0,0,140,80.55a22,22,0,0,0-8.11,1.77,46,46,0,0,0-9,4.87,60.73,60.73,0,0,0-8.78,7.38,62.09,62.09,0,0,0-7.54,9.27,48.57,48.57,0,0,0-5.29,10.5,32.89,32.89,0,0,0-2,11.15,18.51,18.51,0,0,0,.58,4.59,13.08,13.08,0,0,0,1.8,4.14,9.15,9.15,0,0,0,3.2,2.95,9.53,9.53,0,0,0,4.75,1.11,16.77,16.77,0,0,0,7.67-1.84,22.59,22.59,0,0,0,6.4-4.8,24.18,24.18,0,0,0,4.38-6.6,17.47,17.47,0,0,0,1.64-7.26,6.36,6.36,0,0,0-1.92-5,7.53,7.53,0,0,0-5.21-1.72l-.08-1c3.44,0,6,.69,7.67,2.05s2.5,3.69,2.5,7a16.41,16.41,0,0,1-1.52,6.4,22.16,22.16,0,0,1-4.47,6.6,24.12,24.12,0,0,1-7.34,5.12,23.39,23.39,0,0,1-10,2,15.81,15.81,0,0,1-7.18-1.47,14.44,14.44,0,0,1-4.71-3.69,13.88,13.88,0,0,1-2.59-4.8,16.62,16.62,0,0,1-.77-4.8A27.42,27.42,0,0,1,96.25,114a49.81,49.81,0,0,1,5.86-10.38,64.3,64.3,0,0,1,8.41-9.38,70.51,70.51,0,0,1,9.8-7.63,53.27,53.27,0,0,1,10.08-5.13,26.72,26.72,0,0,1,9.23-1.88q5.16,0,7.7,2.13a7.66,7.66,0,0,1,2.55,6.23,10.78,10.78,0,0,1-1.36,5.33,13.76,13.76,0,0,1-3.6,4.23,18.38,18.38,0,0,1-5.13,2.78,17.25,17.25,0,0,1-5.9,1,9.75,9.75,0,0,1-5.5-1.52c-1.53-1-2.35-2.74-2.46-5.21V93.51a7.68,7.68,0,0,1,.08-1.15Z"/><text class="cls-3" transform="translate(61.02 98.67)">&amp;</text></g></g></svg>