<svg xmlns="http://www.w3.org/2000/svg" viewBox="0 0 1366.29 191.61"><defs><style>.cls-1{fill:#2e314e;}</style></defs><title>BostonSkylineBlue</title><g id="Layer_2" data-name="Layer 2"><g id="Layer_1-2" data-name="Layer 1"><polygon class="cls-1" points="0 191.61 0 146.61 12.72 146.61 12.72 139.09 35.86 139.09 35.86 149.5 41.93 149.5 41.93 141.98 51.76 141.98 51.76 154.41 76.34 154.41 76.34 162.22 105.54 162.22 105.54 135.33 122.03 135.33 122.03 128.68 139.66 128.68 139.66 122.03 153.54 122.03 153.54 127.52 173.5 127.52 173.5 131.28 187.67 131.28 187.67 138.22 192 138.22 192 127.23 223.23 127.23 223.23 135.62 259.95 135.62 259.95 27.76 278.46 27.76 278.46 24.87 283.67 24.87 283.67 34.7 293.79 34.7 293.79 24.87 297.55 24.87 297.55 21.11 306.51 21.11 306.51 24.58 317.5 24.58 317.5 42.8 324.15 42.8 324.15 121.74 332.54 121.74 332.54 110.46 337.74 110.46 337.74 103.52 368.39 103.52 368.39 83.57 374.18 83.57 374.18 74.32 397.31 74.32 397.31 82.41 403.09 82.41 403.09 87.33 412.06 87.33 412.06 139.96 419.28 139.96 419.28 150.66 423.33 150.66 423.33 82.12 432.09 82.12 432.09 75.18 470.18 75.18 470.18 80.97 480.01 80.97 480.01 72.58 483.48 72.58 483.48 56.68 512.97 56.68 512.97 67.95 516.44 67.95 516.44 74.32 523.96 74.32 523.96 60.73 527.14 60.73 527.14 36.15 548.54 36.15 548.54 0 595.1 0 595.1 75.18 602.9 75.18 602.9 65.64 606.66 65.64 606.66 56.39 616.78 56.39 616.78 42.8 624.59 42.8 624.59 29.79 629.5 29.79 629.5 24.29 636.44 24.29 636.44 17.35 646.57 17.35 646.57 23.71 654.37 23.71 654.37 28.34 661.6 28.34 661.6 41.93 668.54 41.93 668.54 64.2 704.98 64.2 704.98 67.09 712.5 67.09 712.5 60.15 717.41 60.15 717.41 53.21 746.04 53.21 746.04 60.15 751.53 60.15 751.53 124.92 755.58 124.92 755.58 113.35 777.85 113.35 777.85 64.48 786.52 64.48 786.52 56.97 818.33 56.97 818.33 63.91 826.13 63.91 826.13 151.52 832.21 151.52 832.21 94.27 842.62 94.27 842.62 61.01 848.11 61.01 848.11 55.81 852.16 55.81 852.16 48.58 873.85 48.58 873.85 53.21 883.39 53.21 883.39 46.27 897.56 46.27 897.56 56.97 903.92 56.97 903.92 60.44 911.44 60.44 911.44 95.72 916.71 95.72 916.71 156.72 927.34 156.72 927.34 150.37 937.46 150.37 937.46 121.45 944.69 121.45 944.69 64.2 959.73 64.2 959.73 51.18 966.09 51.18 966.09 64.2 991.54 64.2 991.54 120.87 1004.26 120.87 1004.26 132.15 1008.31 132.15 1008.31 145.74 1020.16 145.74 1020.16 141.98 1023.92 141.98 1023.92 130.99 1027.1 130.99 1027.1 121.45 1049.08 121.45 1049.08 133.02 1055.44 133.02 1055.44 138.8 1065.85 138.8 1065.85 149.21 1069.32 149.21 1069.32 167.71 1077.13 167.71 1077.13 115.38 1141.61 115.38 1141.61 158.75 1150.29 158.75 1150.29 166.56 1162.14 166.56 1162.14 152.39 1165.61 152.39 1165.61 146.32 1174.87 146.32 1174.87 141.4 1187.01 141.4 1187.01 167.14 1196.55 167.14 1196.55 164.24 1205.81 164.24 1205.81 133.3 1212.74 133.3 1212.74 128.68 1224.02 128.68 1224.02 132.44 1229.81 132.44 1229.81 169.16 1235.59 169.16 1235.59 133.59 1241.08 133.59 1241.08 128.97 1252.65 128.97 1252.65 132.73 1260.75 132.73 1260.75 170.61 1280.99 170.61 1280.99 165.69 1286.77 165.69 1286.77 160.49 1304.41 160.49 1304.41 165.11 1309.32 165.11 1309.32 170.32 1320.89 170.32 1320.89 165.4 1326.1 165.4 1326.1 156.15 1332.17 156.15 1332.17 161.35 1342.58 161.35 1342.58 171.76 1349.81 171.76 1349.81 167.71 1366.29 167.71 1366.29 191.14 0 191.61"/></g></g></svg>